<?xml version="1.0" encoding="UTF-8"?>
<svg width="1004px" height="224px" viewBox="0 0 1004 224" version="1.1" xmlns="http://www.w3.org/2000/svg" xmlns:xlink="http://www.w3.org/1999/xlink">
    <title>Combined Shape</title>
    <defs>
        <linearGradient x1="100%" y1="47.5111506%" x2="-11.1390956%" y2="51.4391053%" id="linearGradient-1">
            <stop stop-color="#FF9C3A" offset="0%"></stop>
            <stop stop-color="#D145DE" offset="51.6179263%"></stop>
            <stop stop-color="#7F39FF" offset="100%"></stop>
        </linearGradient>
    </defs>
    <g id="Page-1" stroke="none" stroke-width="1" fill="none" fill-rule="evenodd">
        <g id="vezgo-logo" transform="translate(-298.000000, -698.000000)" fill="url(#linearGradient-1)">
            <g id="Group-2" transform="translate(298.000000, 698.000000)">
                <path d="M802.378286,54.3276604 C803.1189,54.6923008 803.796044,55.1737157 804.383768,55.7534568 C812.477874,63.7377093 821.877605,71.6099419 832.582915,79.3702008 L834.31962,80.6150193 L836.003673,81.7946136 L837.635827,82.9112906 L839.216836,83.9673568 C839.476117,84.138445 839.733299,84.307104 839.988397,84.4733816 L841.4941,85.4428565 L842.950541,86.3574872 L844.358473,87.2195802 L845.718648,88.0314423 L847.031821,88.79538 C847.246808,88.9188374 847.459868,89.040394 847.671016,89.160098 L848.915097,89.8564741 L850.114057,90.5106924 L851.268651,91.1250595 L852.37963,91.701882 L853.965972,92.5017655 L855.458418,93.2301486 L856.859513,93.894816 L861.601203,96.0720265 L862.894113,96.6850124 L863.77567,97.1269292 L864.322822,97.4173783 L864.838411,97.7071889 L865.32319,97.9986676 C865.401461,98.0475145 865.478479,98.096527 865.554261,98.1457532 L865.994237,98.4440589 L866.405285,98.7497992 L866.78816,99.0652807 C866.911173,99.172321 867.029616,99.2813694 867.143614,99.3928101 C869.947541,102.133835 871.489598,106.13783 870.755325,110.302588 C869.620704,116.738094 863.599961,121.084115 857.183428,120.194955 L856.735177,120.124387 L833.70056,116.063174 C831.505733,115.676169 829.412806,117.141941 829.025882,119.337031 C828.956502,119.730637 828.945967,120.132367 828.994622,120.529069 L829.112089,121.418329 C829.13169,121.555318 829.151304,121.686697 829.170929,121.812465 C833.245553,147.924714 853.45754,169.747778 880.925626,174.591711 C895.234368,177.115024 909.592209,174.705934 922.082711,167.960354 L923.015968,167.446314 C934.672818,160.899382 949.426418,165.045355 955.969056,176.706604 C962.511695,188.367854 958.365807,203.128502 946.708957,209.675434 C924.341094,222.23808 898.294989,226.831634 872.516871,222.285723 C811.632384,211.548886 770.981218,153.465286 781.720531,92.5524735 C783.78487,80.8436484 786.561509,69.5413606 791.399983,59.2336357 L792.072682,57.8342568 C793.95029,54.019789 798.564266,52.4498323 802.378286,54.3276604 Z M160,8 C173.050913,8 183.668786,18.4170887 183.9924,31.3900504 L184,32 L184,94.1047043 C184,114.761739 176.894458,134.777356 163.896336,150.801295 L163.139915,151.7213 L118.437311,207.364426 C114.029454,212.653854 107.570594,215.786519 100.710977,215.989486 L100,216 L84,216 C77.1147077,216 70.5732661,213.043649 66.0259231,207.903883 L65.5626893,207.364426 L20.8600848,151.7213 C7.63577342,135.852127 0.280716233,115.926847 0.00787474093,95.2957208 L0,94.1047043 L0,32 C0,18.745166 10.745166,8 24,8 C37.0509135,8 47.6687855,18.4170887 47.9924003,31.3900504 L48,32 L48,94.1047043 C48,103.613091 51.2260282,112.830264 57.1348967,120.255912 L57.7347063,120.992449 L88.868437,160.169414 C90.2428732,161.898929 92.7591224,162.186777 94.4886368,160.81234 C94.7266853,160.623165 94.9423871,160.407463 95.131563,160.169414 L126.265294,120.992449 C132.352415,113.687904 135.774802,104.541822 135.989267,95.0545167 L136,94.1047043 L136,32 C136,18.745166 146.745166,8 160,8 Z M344,8 C357.254834,8 368,18.745166 368,32 C368,45.0509135 357.582911,55.6687855 344.60995,55.9924003 L344,56 L262,56 C259.790861,56 258,57.790861 258,60 L258,84 C258,86.209139 259.790861,88 262,88 L344,88 C357.254834,88 368,98.745166 368,112 C368,125.050913 357.582911,135.668786 344.60995,135.9924 L344,136 L262,136 C259.790861,136 258,137.790861 258,140 L258,142 C258,156.154269 269.310384,167.666857 283.386288,167.992899 L284,168 L344,168 C357.254834,168 368,178.745166 368,192 C368,205.050913 357.582911,215.668786 344.60995,215.9924 L344,216 L284,216 C243.539619,216 210.663392,183.528377 210.009914,143.223725 L210,142 L210,32 C210,18.9490865 220.417089,8.3312145 233.39005,8.00759972 L234,8 C258.444444,10 276.777778,11 289,11 C301.222222,11 319.555556,10 344,8 Z M527.970943,8 C547.183174,8 558.522624,29.4214938 547.949249,45.2841394 L547.622122,45.7630963 L466.502671,161.706933 C465.236245,163.517033 465.676979,166.011049 467.487079,167.277475 C468.159258,167.747762 468.959783,168 469.780146,168 L527.970943,168 C541.014962,168 551.627224,178.417089 551.950668,191.39005 L551.958264,192 C551.958264,205.050913 541.546678,215.668786 528.58057,215.9924 L527.970943,216 C503.888435,214.028571 485.740544,213.028776 473.527272,213.000612 L473,213 C460.784235,213 442.460587,214 418.029057,216 C398.816826,216 387.477376,194.578506 398.050751,178.715861 L398.377878,178.236904 L477.624297,62.2566306 C478.870599,60.4326173 478.402272,57.9436343 476.578259,56.6973317 C475.913388,56.2430417 475.126882,56 474.321628,56 L418.029057,56 C404.985038,56 394.372776,45.5829113 394.049332,32.6099496 L394.041736,32 C394.041736,18.9490865 404.453322,8.3312145 417.41943,8.00759972 L418.029057,8 C442.460587,10 460.784235,11 473,11 C485.215765,11 503.539413,10 527.970943,8 Z M730,8 C743.050913,8 753.668786,18.4170887 753.9924,31.3900504 L754,32 L754,64 C754,77.254834 743.254834,88 730,88 C716.949087,88 706.331214,77.5829113 706.0076,64.6099496 L706,64 L706,60 C706,57.790861 704.209139,56 702,56 L630,56 C627.790861,56 626,57.790861 626,60 L626,164 C626,166.209139 627.790861,168 630,168 L702,168 C704.209139,168 706,166.209139 706,164 L706,154 C706,151.790861 704.209139,150 702,150 L694,150 C680.949087,150 670.331214,139.582911 670.0076,126.60995 L670,126 L670,108 L670,108 C670,104.686292 672.686292,102 676,102 L730,102 C743.050913,102 753.668786,112.417089 753.9924,125.39005 L754,126 L754,192 C754,205.050913 743.582911,215.668786 730.60995,215.9924 L730,216 C701.911111,214.025 680.756667,213.025156 666.536667,213.000469 L666,213 C651.777778,213 630.444444,214 602,216 C588.949087,216 578.331214,205.582911 578.0076,192.60995 L578,192 L578,32 C578,18.9490865 588.417089,8.3312145 601.39005,8.00759972 L602,8 C630.444444,10 651.777778,11 666,11 C680.222222,11 701.555556,10 730,8 Z M911.483129,1.71427688 C972.367616,12.4511139 1013.01878,70.5347139 1002.27947,131.447527 C1000.21513,143.156352 997.438491,154.458639 992.600017,164.766364 L991.927318,166.165743 C990.04971,169.980211 985.435734,171.550168 981.621714,169.67234 C980.8811,169.307699 980.203956,168.826284 979.616232,168.246543 C971.522126,160.262291 962.122395,152.390058 951.417085,144.629799 L950.542104,143.999093 L948.83182,142.787175 C948.551149,142.590592 948.272657,142.396678 947.996327,142.205386 L946.364173,141.088709 L944.783164,140.032643 L943.252547,139.034881 L941.771569,138.093117 L940.339477,137.205043 L938.955517,136.368354 L937.618937,135.580742 L936.328984,134.839902 L935.084903,134.143526 L933.303147,133.177287 L932.170455,132.58198 L931.081,132.023065 L929.526239,131.24788 L928.064525,130.541601 L925.410072,129.304619 L922.398797,127.927973 L921.416337,127.465111 L920.509978,127.019256 L919.677178,126.582622 C919.588637,126.534331 919.501411,126.486066 919.415485,126.437781 L918.915395,126.147424 L918.445739,125.854247 C918.294176,125.755794 918.147559,125.656487 918.005763,125.555941 L917.594715,125.250201 C917.462436,125.146792 917.334853,125.04176 917.21184,124.934719 L916.856386,124.60719 C914.052459,121.866165 912.510402,117.86217 913.244675,113.697412 C914.379296,107.261906 920.400039,102.915885 926.816572,103.805045 L927.264823,103.875613 L950.287028,107.934638 C952.481832,108.321576 954.574727,106.855826 954.961645,104.66077 C955.030643,104.269331 955.041444,103.869846 954.993697,103.475251 L954.815536,102.130948 L954.695694,101.368206 C950.330117,75.6198566 930.254669,54.2014708 903.074374,49.4082893 C888.765632,46.8849761 874.407791,49.2940656 861.917289,56.0396459 L860.984032,56.553686 C849.327182,63.1006183 834.573582,58.9546451 828.030944,47.2933956 C821.488305,35.6321462 825.634193,20.8714985 837.291043,14.3245662 C859.658906,1.76191958 885.705011,-2.83163389 911.483129,1.71427688 Z" id="Combined-Shape"></path>
            </g>
        </g>
    </g>
</svg>